<svg fill="none" height="64" viewBox="0 0 415 64" width="415" xmlns="http://www.w3.org/2000/svg"><g fill="#fff"><path d="m379.138 20.6317h10.512v5.112c1.2-1.776 2.808-3.168 4.824-4.176s4.248-1.512 6.696-1.512c2.736 0 5.136.576 7.2 1.728 2.064 1.104 3.672 2.688 4.824 4.752 1.152 2.016 1.728 4.368 1.728 7.056v24.408h-10.584v-21.672c0-2.112-.6-3.792-1.8-5.04-1.152-1.248-2.712-1.872-4.68-1.872-1.776 0-3.264.48-4.464 1.44-1.2.912-2.136 2.28-2.808 4.104-.624 1.824-.936 4.032-.936 6.624v16.416h-10.512z"/><path d="m361.489 20.6322h10.512v37.3681h-10.512zm-.288-14.97595h11.232v10.29595h-11.232z"/><path d="m338.206 58.5757c-2.208 0-4.224-.408-6.048-1.224-1.776-.816-3.12-1.872-4.032-3.168v3.816h-10.512v-52.48798h10.512v18.79198c1.104-1.296 2.544-2.328 4.32-3.096s3.744-1.152 5.904-1.152c3.552 0 6.648.792 9.288 2.376 2.688 1.584 4.752 3.84 6.192 6.768 1.488 2.88 2.232 6.24 2.232 10.08 0 3.888-.744 7.296-2.232 10.224-1.44 2.88-3.504 5.112-6.192 6.696s-5.832 2.376-9.432 2.376zm-1.728-9c1.776 0 3.336-.432 4.68-1.296s2.376-2.064 3.096-3.6c.72-1.584 1.08-3.384 1.08-5.4 0-3.072-.816-5.544-2.448-7.416s-3.768-2.808-6.408-2.808c-1.776 0-3.336.432-4.68 1.296s-2.4 2.064-3.168 3.6c-.72 1.536-1.08 3.312-1.08 5.328 0 2.064.36 3.864 1.08 5.4.768 1.536 1.824 2.736 3.168 3.6s2.904 1.296 4.68 1.296z"/><path d="m295.331 58.5757c-2.208 0-4.224-.408-6.048-1.224-1.776-.816-3.12-1.872-4.032-3.168v3.816h-10.512v-52.48798h10.512v18.79198c1.104-1.296 2.544-2.328 4.32-3.096s3.744-1.152 5.904-1.152c3.552 0 6.648.792 9.288 2.376 2.688 1.584 4.752 3.84 6.192 6.768 1.488 2.88 2.232 6.24 2.232 10.08 0 3.888-.744 7.296-2.232 10.224-1.44 2.88-3.504 5.112-6.192 6.696s-5.832 2.376-9.432 2.376zm-1.728-9c1.776 0 3.336-.432 4.68-1.296s2.376-2.064 3.096-3.6c.72-1.584 1.08-3.384 1.08-5.4 0-3.072-.816-5.544-2.448-7.416s-3.768-2.808-6.408-2.808c-1.776 0-3.336.432-4.68 1.296s-2.4 2.064-3.168 3.6c-.72 1.536-1.08 3.312-1.08 5.328 0 2.064.36 3.864 1.08 5.4.768 1.536 1.824 2.736 3.168 3.6s2.904 1.296 4.68 1.296z"/><path d="m250.98 58.5757c-3.744 0-7.104-.84-10.08-2.52-2.928-1.68-5.208-3.984-6.84-6.912s-2.448-6.216-2.448-9.864.816-6.936 2.448-9.864c1.68-2.928 3.984-5.208 6.912-6.84 2.928-1.68 6.264-2.52 10.008-2.52 3.696 0 7.008.84 9.936 2.52 2.976 1.68 5.304 3.984 6.984 6.912 1.68 2.88 2.52 6.144 2.52 9.792s-.84 6.936-2.52 9.864-4.008 5.232-6.984 6.912c-2.928 1.68-6.24 2.52-9.936 2.52zm0-9c1.728 0 3.24-.432 4.536-1.296 1.344-.864 2.376-2.064 3.096-3.6.72-1.584 1.08-3.384 1.08-5.4 0-1.968-.36-3.72-1.08-5.256-.72-1.584-1.752-2.808-3.096-3.672s-2.856-1.296-4.536-1.296c-1.728 0-3.264.432-4.608 1.296-1.296.864-2.304 2.088-3.024 3.672-.72 1.536-1.08 3.288-1.08 5.256 0 2.016.36 3.816 1.08 5.4.72 1.536 1.728 2.736 3.024 3.6s2.832 1.296 4.608 1.296z"/><path d="m166 6.08789h15.264l11.88 31.75201c1.344 3.648 2.4 7.008 3.168 10.08.816-3.072 1.872-6.432 3.168-10.08l11.808-31.75201h14.832v51.91201h-10.944v-24.984c0-3.888.072-7.44.216-10.656-1.008 3.216-2.136 6.576-3.384 10.08l-9.576 25.56h-12.672l-9.648-25.56c-1.344-3.648-2.448-7.008-3.312-10.08.144 3.216.216 6.768.216 10.656v24.984h-11.016z"/><path d="m136.003 29.8667h-34.133v34.1333h34.133z"/><path d="m0 63.9998v-30.0513l33.9486-33.9485h30.0512v30.0513l-33.9485 33.9485z"/><path d="m51.1992 63.9998v-30.0513l33.9486-33.9485h30.0512v30.0513l-33.9485 33.9485z"/></g></svg>